<?xml version="1.0" standalone="no"?>
<!DOCTYPE svg PUBLIC "-//W3C//DTD SVG 20010904//EN"
 "http://www.w3.org/TR/2001/REC-SVG-20010904/DTD/svg10.dtd">
<svg version="1.0" xmlns="http://www.w3.org/2000/svg"
 width="500.000000pt" height="500.000000pt" viewBox="0 0 500.000000 500.000000"
 preserveAspectRatio="xMidYMid meet">
<metadata>
Created by potrace 1.14, written by Peter Selinger 2001-2017
</metadata>
<g transform="translate(0.000000,500.000000) scale(0.100000,-0.100000)"
fill="#000000" stroke="none">
<path d="M0 2500 l0 -2500 2500 0 2500 0 0 2500 0 2500 -2500 0 -2500 0 0
-2500z m2521 1887 c223 -58 396 -165 511 -316 77 -102 129 -228 127 -306 -1
-19 -3 -23 -6 -10 -10 47 -37 112 -60 143 -26 35 -64 41 -135 22 -62 -18 -180
-103 -262 -191 -104 -110 -157 -215 -164 -324 -6 -96 2 -132 40 -190 47 -72
193 -160 308 -186 61 -15 174 -12 215 5 38 16 49 34 69 108 l15 53 0 -61 c2
-108 -63 -201 -173 -249 -97 -42 -151 -50 -346 -49 -167 1 -200 4 -345 33 -87
18 -213 50 -280 72 -412 135 -731 407 -766 655 -31 227 118 472 403 664 111
75 246 125 404 150 107 16 337 5 445 -23z m673 -913 c8 -64 8 -172 -2 -178
-29 -18 -78 84 -67 142 6 34 39 82 55 82 4 0 10 -21 14 -46z m-286 -29 c65
-54 60 -170 -7 -193 -37 -13 -67 -4 -97 29 -49 55 -58 118 -23 163 28 35 85
36 127 1z m998 -42 c30 -9 50 -21 47 -26 -4 -6 1 -8 11 -4 14 6 17 3 12 -9 -5
-12 -2 -15 9 -10 9 3 13 2 10 -4 -7 -11 19 -42 29 -35 3 3 4 2 2 -1 -2 -3 7
-29 20 -57 13 -29 24 -71 24 -94 0 -51 -28 -128 -63 -174 -14 -19 -32 -62 -40
-96 l-14 -63 23 0 c25 0 49 -33 38 -52 -4 -6 -8 -57 -9 -112 -1 -70 -6 -113
-18 -140 -14 -32 -15 -46 -6 -80 18 -66 4 -141 -46 -241 -55 -114 -101 -176
-223 -298 -169 -171 -285 -254 -387 -277 -61 -14 -125 -6 -158 20 -29 23 -26
55 4 57 19 2 19 1 1 -15 -10 -9 -12 -13 -5 -9 6 5 16 6 22 3 5 -3 8 2 6 11 -3
21 21 62 47 81 10 7 18 18 18 23 0 6 14 24 31 42 38 40 74 108 61 116 -5 3
-15 23 -21 44 -9 26 -18 37 -32 37 -12 0 -19 7 -19 19 0 21 -60 91 -79 91 -6
0 -11 14 -11 31 0 17 -7 37 -16 46 -14 14 -11 20 28 60 23 24 49 41 56 38 7
-2 11 -1 8 4 -6 10 93 94 281 241 67 52 122 100 123 107 0 6 12 39 27 73 17
41 31 59 40 56 17 -7 16 2 -2 34 -8 14 -14 39 -15 56 0 18 -15 55 -38 90 -21
32 -44 74 -52 93 -17 42 -15 129 4 175 13 31 13 34 -1 29 -13 -5 -13 -3 -2 16
8 12 15 17 17 11 2 -6 8 -8 12 -5 5 3 7 12 4 20 -4 8 1 18 10 21 9 3 14 9 12
13 -2 3 15 15 37 25 23 10 49 22 57 27 24 13 69 10 126 -8z m-2481 -528 c94
-8 224 -22 290 -30 66 -8 215 -19 330 -25 580 -29 790 -43 890 -56 122 -16
134 -18 187 -41 35 -15 37 -18 43 -77 4 -35 2 -138 -5 -230 -10 -149 -10 -169
4 -191 9 -13 16 -37 15 -52 -1 -27 -1 -27 -10 6 -6 18 -12 31 -14 29 -2 -2
-15 -82 -29 -178 -28 -197 -30 -208 -79 -415 -169 -719 -426 -1117 -752 -1165
-154 -23 -339 41 -473 165 -70 65 -72 66 -81 43 -25 -67 -40 -96 -52 -104 -9
-5 -8 1 4 19 20 30 23 47 5 29 -17 -17 -28 -15 -28 6 0 14 -2 15 -10 2 -7 -11
-10 0 -10 37 0 28 -4 55 -10 58 -6 4 -10 -5 -10 -20 0 -15 -7 -33 -15 -41 -8
-9 -15 -30 -16 -47 0 -18 -5 -41 -10 -52 -7 -16 -9 -14 -6 12 4 38 -5 43 -21
10 -8 -17 -11 -18 -11 -4 -1 9 -8 17 -17 17 -8 0 -13 4 -10 9 4 5 -3 7 -15 4
-15 -4 -17 -8 -8 -14 8 -4 11 -10 9 -13 -3 -2 -16 4 -30 15 -21 16 -22 18 -5
13 18 -5 18 -4 4 8 -8 7 -18 21 -22 30 -10 28 -10 303 1 301 6 -1 12 6 14 15
4 14 -13 28 -76 60 -134 69 -127 59 -142 213 -7 74 -14 211 -15 304 -2 150 -6
188 -35 325 -57 269 -86 491 -104 798 -14 241 -14 242 88 242 37 0 144 -7 237
-15z m1695 -1178 c0 -4 5 -5 12 -1 7 5 8 3 3 -6 -6 -10 -12 -7 -26 11 -10 13
-19 29 -18 34 0 6 6 1 14 -9 8 -11 15 -24 15 -29z m-1792 -681 c106 -56 107
-57 104 -138 -4 -132 -14 -259 -20 -253 -3 2 -5 22 -4 42 0 33 -1 35 -9 15
-10 -26 -29 -21 -29 8 0 22 -17 35 -22 18 -6 -17 -43 99 -62 192 -32 160 -34
155 42 116z m2865 -613 c-13 -2 -33 -2 -45 0 -13 2 -3 4 22 4 25 0 35 -2 23
-4z m-342 -89 c17 -21 0 -48 -34 -52 -14 -2 -28 -11 -30 -20 -3 -9 -5 7 -6 36
-1 51 0 52 28 52 16 0 34 -7 42 -16z m229 -26 l30 -41 0 36 c0 21 3 37 8 37 8
0 9 -76 0 -85 -3 -4 -19 11 -34 31 l-29 38 -6 -40 c-6 -38 -6 -37 -8 14 0 28
1 52 4 52 3 0 18 -19 35 -42z m211 25 c11 -15 11 -16 -1 -5 -21 18 -48 15 -60
-8 -20 -38 8 -78 45 -64 21 8 19 32 -2 37 -14 4 -13 5 4 6 42 2 40 -44 -4 -55
-49 -13 -82 49 -46 88 20 23 47 23 64 1z m179 11 c0 -3 -14 -23 -31 -44 -17
-21 -29 -43 -26 -48 4 -5 0 -9 -8 -9 -21 0 -19 6 16 52 l30 40 -28 6 c-26 6
-25 7 10 8 20 0 37 -2 37 -5z m-516 -46 c-6 -58 -14 -61 -14 -5 0 26 4 47 9
47 5 0 7 -19 5 -42z m603 -25 c-2 -16 -4 -5 -4 22 0 28 2 40 4 28 2 -13 2 -35
0 -50z m-2247 -83 c119 -13 180 -30 192 -54 8 -15 7 -22 -7 -32 -24 -18 -116
-44 -154 -44 -16 0 -54 -5 -83 -11 -92 -21 -400 24 -423 61 -38 62 233 108
475 80z"/>
<path d="M2740 3060 c13 -9 13 -11 0 -21 -12 -8 -11 -9 6 -4 12 3 32 1 45 -4
13 -5 19 -10 12 -10 -6 -1 -20 -4 -30 -7 -15 -5 -15 -4 -3 5 13 9 13 11 0 11
-8 0 -21 -4 -28 -9 -10 -6 -9 -10 7 -14 17 -4 21 -13 21 -45 0 -33 4 -41 23
-46 39 -10 42 -7 40 49 -1 53 0 55 20 49 12 -4 25 -11 28 -16 4 -7 9 -6 13 0
3 6 -16 18 -45 27 -28 10 -63 24 -78 31 -30 16 -54 19 -31 4z"/>
<path d="M2868 2903 c7 -3 16 -2 19 1 4 3 -2 6 -13 5 -11 0 -14 -3 -6 -6z"/>
<path d="M2870 2880 c-9 -6 -10 -10 -3 -10 6 0 15 5 18 10 8 12 4 12 -15 0z"/>
<path d="M2818 2863 c7 -3 16 -2 19 1 4 3 -2 6 -13 5 -11 0 -14 -3 -6 -6z"/>
<path d="M3885 2651 c-6 -5 -23 -11 -40 -13 -37 -4 -35 -23 2 -23 23 -1 63 25
63 40 0 8 -15 6 -25 -4z"/>
<path d="M1729 2532 c0 -4 -2 -239 -4 -522 -2 -283 -6 -613 -8 -733 -3 -121
-2 -215 3 -210 4 4 15 35 25 68 9 33 25 87 35 120 10 33 22 76 25 95 4 19 12
62 20 95 7 33 19 94 25 135 7 41 18 109 25 150 34 195 43 502 19 651 -5 29 -2
41 15 56 29 27 19 47 -37 71 -50 21 -142 36 -143 24z"/>
<path d="M1381 684 c0 -11 3 -14 6 -6 3 7 2 16 -1 19 -3 4 -6 -2 -5 -13z"/>
<path d="M3790 295 c0 -20 5 -25 24 -25 14 0 27 4 30 9 11 18 -6 41 -30 41
-19 0 -24 -5 -24 -25z"/>
</g>
</svg>
