<?xml version="1.0" standalone="no"?>
<!DOCTYPE svg PUBLIC "-//W3C//DTD SVG 20010904//EN"
 "http://www.w3.org/TR/2001/REC-SVG-20010904/DTD/svg10.dtd">
<svg version="1.0" xmlns="http://www.w3.org/2000/svg"
 width="500.000000pt" height="500.000000pt" viewBox="0 0 500.000000 500.000000"
 preserveAspectRatio="xMidYMid meet">
<metadata>
Created by potrace 1.14, written by Peter Selinger 2001-2017
</metadata>
<g transform="translate(0.000000,500.000000) scale(0.100000,-0.100000)"
fill="#000000" stroke="none">
<path d="M4310 4933 c0 -38 -4 -95 -9 -128 -23 -148 -30 -222 -38 -390 -11
-274 -8 -460 10 -540 8 -38 18 -99 22 -135 4 -36 12 -71 18 -79 19 -23 20 -40
23 -268 1 -123 4 -233 7 -246 5 -17 -4 -34 -38 -70 l-44 -49 20 -51 c12 -29
27 -69 35 -90 8 -21 26 -60 39 -87 14 -27 25 -54 25 -60 0 -12 33 -52 77 -92
24 -22 30 -36 27 -55 -4 -19 -1 -24 10 -20 12 5 14 -1 11 -23 -2 -22 2 -34 17
-44 23 -16 16 -36 -13 -36 -31 0 -62 -38 -56 -70 3 -15 1 -32 -6 -39 -8 -8 -5
-11 12 -11 12 0 19 4 16 10 -4 6 7 10 25 10 l31 0 -17 -29 c-12 -20 -23 -27
-35 -24 -13 4 -19 0 -20 -13 0 -14 -4 -11 -11 9 -7 21 -16 27 -38 27 -16 0
-32 5 -35 10 -10 16 -41 12 -66 -9 -19 -15 -21 -21 -11 -33 22 -27 0 -28 -31
-2 -17 14 -33 21 -36 15 -8 -12 -112 -13 -131 -1 -17 10 -53 -7 -45 -21 4 -5
10 -7 15 -4 5 3 11 1 15 -5 3 -5 0 -10 -7 -11 -30 -3 -63 4 -69 13 -4 7 -9 6
-14 -1 -4 -7 -16 -9 -27 -5 -14 4 -18 2 -14 -5 4 -6 6 -11 4 -11 -16 -1 -78
-29 -65 -30 10 0 28 5 39 11 25 13 78 -8 56 -23 -10 -6 -10 -10 2 -19 11 -8
12 -12 2 -16 -7 -2 -17 -13 -22 -24 -8 -15 -7 -17 5 -13 9 4 15 0 15 -9 0 -8
-10 -17 -22 -21 -17 -4 -29 1 -45 20 -13 17 -27 25 -37 21 -11 -5 -18 1 -22
19 -4 17 -11 23 -21 20 -8 -3 -21 -6 -29 -6 -8 0 -11 -6 -8 -15 4 -8 1 -15 -6
-15 -12 0 -11 -33 5 -150 6 -39 0 -26 -26 59 -8 26 -20 46 -31 49 -14 3 -15 8
-8 22 6 10 10 27 10 38 0 11 9 31 20 45 11 14 20 27 20 30 0 13 -52 14 -158 1
-64 -7 -119 -14 -121 -14 -2 0 -1 9 2 20 4 15 0 20 -13 20 -17 0 -38 46 -26
57 6 6 -19 33 -30 33 -3 0 0 -8 7 -17 13 -15 12 -16 -6 -8 -11 5 -38 9 -60 8
-35 -1 -37 0 -16 8 13 5 30 17 37 27 8 10 13 12 14 5 0 -7 4 -13 9 -13 4 0 6
12 3 26 -4 21 -2 25 9 18 8 -4 40 -7 73 -6 43 2 64 -2 77 -14 17 -15 19 -15
25 0 3 9 3 23 0 32 -5 14 -4 15 9 4 9 -7 15 -8 15 -2 0 6 -12 20 -27 31 -16
11 -22 21 -15 21 19 0 14 28 -7 40 -28 14 -74 13 -68 -2 21 -51 23 -48 -44
-49 -35 -1 -78 -2 -96 -4 -26 -2 -32 1 -38 22 -8 32 -37 63 -43 45 -3 -9 -7
-8 -18 2 -18 18 -18 26 0 26 8 0 18 5 22 12 5 8 2 9 -9 5 -11 -4 -17 -1 -17 8
0 11 13 15 53 15 93 0 97 3 97 76 0 50 3 64 15 64 8 0 15 6 15 14 0 11 -22 14
-107 13 -200 -2 -243 2 -243 18 0 12 -19 15 -115 15 -70 0 -115 -4 -115 -10 0
-6 42 -10 105 -10 l105 0 0 -40 c0 -34 -2 -39 -14 -28 -8 7 -11 17 -8 22 3 6
-3 6 -14 1 -16 -6 -51 -8 -82 -4 -40 6 -172 -3 -167 -11 11 -17 -17 -11 -30 7
-11 14 -31 18 -114 19 -60 2 -99 -1 -96 -7 4 -5 2 -9 -4 -9 -5 0 -12 4 -15 8
-2 4 -19 7 -38 7 -38 -1 -80 -23 -60 -32 10 -4 10 -8 0 -21 -7 -8 -12 -17 -10
-19 1 -1 2 -14 2 -28 0 -31 -18 -33 -24 -2 -16 77 -17 97 -3 97 8 0 17 6 20
14 7 17 -86 31 -134 21 -17 -4 -77 -1 -132 6 -84 11 -96 14 -67 20 30 5 27 6
-17 6 -32 -1 -48 -5 -40 -10 9 -7 9 -10 0 -14 -18 -7 -16 -23 2 -23 11 0 15
-13 15 -52 0 -70 8 -96 31 -103 10 -3 21 -15 24 -26 4 -10 14 -19 24 -19 13 0
19 -8 19 -27 l0 -26 -19 24 c-16 20 -19 21 -19 6 0 -14 -4 -16 -19 -7 -14 7
-22 7 -27 -2 -4 -7 -3 -8 4 -4 16 10 14 -5 -3 -28 -17 -22 -16 -26 -19 76 -2
56 -3 58 -48 62 -19 2 -40 6 -46 10 -6 3 -13 2 -16 -3 -9 -13 -11 -150 -2
-158 3 -4 22 -7 41 -7 29 0 35 -4 35 -22 0 -12 -6 -24 -12 -27 -10 -3 -10 -9
1 -30 14 -27 8 -82 -9 -72 -6 3 -15 -6 -20 -20 -14 -36 -26 -24 -33 30 -6 56
-8 58 -41 49 -20 -5 -25 -11 -21 -25 4 -10 2 -26 -2 -34 -8 -13 -12 -12 -29 7
-40 46 -96 149 -89 166 3 9 3 13 -1 9 -12 -11 -56 71 -59 110 -3 25 4 47 21
74 13 21 24 49 24 62 0 22 -22 62 -46 82 -6 6 -15 23 -18 38 -4 16 -12 27 -18
25 -7 -3 -24 28 -41 76 -47 136 -50 147 -38 173 7 15 7 31 1 49 -9 23 -5 30
37 69 27 25 51 44 56 45 4 0 7 4 7 10 0 6 -10 5 -25 -2 -19 -8 -35 -8 -62 0
-29 9 -39 9 -45 -1 -6 -9 -11 -9 -25 1 -10 6 -25 15 -33 18 -8 3 -22 9 -31 14
-20 10 -40 -6 -32 -27 3 -8 -3 -20 -13 -28 -18 -14 -18 -15 3 -21 15 -4 23
-14 23 -27 0 -19 -3 -18 -33 10 -17 17 -45 41 -61 54 -16 13 -39 33 -52 44
-12 11 -46 40 -76 65 -81 67 -113 107 -99 124 7 8 8 16 4 19 -14 8 -83 -5 -77
-14 3 -5 9 -7 14 -4 5 3 7 -11 5 -30 -2 -19 1 -33 5 -30 4 3 18 -14 30 -38 12
-23 27 -45 34 -49 15 -10 -7 -44 -26 -40 -7 2 -3 -7 10 -20 22 -24 30 -44 13
-34 -5 4 -11 1 -13 -6 -3 -8 -9 -8 -24 0 -18 10 -18 11 -1 17 9 4 17 12 17 17
0 6 -6 8 -14 5 -19 -8 -58 37 -96 108 -27 52 -31 56 -26 25 11 -59 275 -426
324 -449 33 -16 38 -15 81 25 49 44 69 37 94 -34 9 -28 30 -64 46 -81 16 -17
31 -44 33 -61 4 -26 2 -30 -21 -31 -24 -2 -24 -2 -3 -6 12 -2 22 -11 22 -19 0
-8 4 -14 8 -14 13 0 12 -42 -3 -56 -11 -11 -16 -9 -30 12 -21 32 -33 23 -15
-10 7 -14 10 -38 7 -55 -6 -28 3 -70 24 -116 12 -27 69 -193 69 -202 0 -5 -14
-9 -31 -9 -36 -1 -51 -20 -44 -52 3 -13 1 -30 -5 -37 -14 -17 20 -55 49 -55
11 0 22 -6 24 -12 4 -8 9 -3 13 11 7 23 7 23 25 -10 22 -41 24 -63 5 -56 -7 3
-27 -7 -43 -23 l-29 -29 -52 26 c-29 14 -52 29 -52 34 0 17 -41 9 -47 -8 -10
-26 -35 -42 -65 -43 -31 0 -36 11 -13 30 12 10 15 10 15 -4 0 -9 5 -16 10 -16
6 0 10 6 10 14 0 8 6 16 13 19 27 9 -1 16 -32 7 -28 -8 -32 -7 -27 6 5 12 1
14 -15 9 -15 -5 -19 -4 -15 4 4 6 1 11 -7 11 -8 0 -17 -9 -20 -20 -7 -27 -29
-25 -64 4 -15 13 -31 24 -35 25 -5 0 -11 1 -15 2 -5 1 -17 0 -29 0 -30 -3 -49
23 -29 39 23 19 18 28 -13 24 -37 -4 -103 12 -112 27 -5 7 -18 9 -33 5 -28 -7
-118 13 -129 28 -15 21 60 84 83 70 5 -3 9 5 9 18 0 13 4 29 9 37 10 16 31 6
31 -14 0 -32 24 -65 46 -65 43 0 43 72 1 120 -15 17 -32 30 -37 30 -6 0 -10 6
-10 13 0 7 -9 18 -19 24 -17 10 -19 9 -17 -13 0 -15 6 -22 14 -19 6 2 12 1 12
-4 0 -5 -9 -11 -20 -14 -15 -4 -20 0 -20 14 0 10 -5 19 -12 19 -9 0 -9 3 0 12
7 7 12 21 12 32 0 18 -1 18 -12 4 -16 -21 -92 -42 -138 -39 -31 3 -37 -12 -7
-15 7 0 20 -2 29 -2 17 -2 17 -4 1 -36 l-16 -34 -22 25 c-12 15 -35 27 -53 29
-26 3 -34 -1 -49 -26 -19 -32 -41 -33 -75 -2 -14 11 -15 18 -7 29 21 25 3 24
-27 -2 -30 -26 -54 -32 -54 -15 0 14 -57 12 -113 -5 -36 -11 -54 -12 -72 -3
-35 16 -55 4 -55 -32 0 -29 -2 -30 -34 -28 -19 1 -41 -4 -49 -11 -10 -8 -17
-9 -22 -1 -3 5 -15 10 -26 10 -10 0 -19 5 -19 11 0 6 12 10 27 9 53 -4 74 0
67 11 -3 6 -17 8 -30 5 -31 -8 -30 1 1 26 31 24 31 32 0 46 -28 13 -34 32 -10
32 24 0 18 19 -8 25 -19 5 -23 11 -19 35 3 18 12 32 25 36 18 6 18 7 4 16 -26
14 -20 28 11 29 24 1 23 3 -18 21 -44 21 -69 43 -70 63 0 6 5 3 10 -5 6 -10
10 -11 10 -2 0 7 13 12 30 12 22 0 28 4 24 15 -4 8 -14 15 -23 15 -14 0 -14
-2 -1 -11 11 -8 7 -9 -18 -6 -19 2 -37 -2 -43 -10 -6 -7 -22 -13 -35 -13 -21
0 -24 -5 -24 -39 0 -40 11 -51 50 -51 9 0 24 -7 31 -16 12 -15 11 -16 -11 -11
-14 4 -20 4 -13 1 18 -8 3 -34 -20 -34 -16 0 -18 -3 -10 -11 9 -9 19 -6 42 10
16 12 32 17 35 13 9 -14 -6 -82 -18 -83 -23 -3 -51 3 -61 12 -20 19 -25 6 -25
-66 l0 -75 26 10 c34 13 44 13 44 -2 0 -7 -15 -20 -33 -28 l-32 -15 -3 -555
c-2 -489 0 -555 13 -563 9 -4 13 -13 9 -19 -4 -6 -9 -5 -15 3 -5 8 -8 -24 -7
-78 1 -71 4 -93 14 -93 8 0 14 -5 14 -11 0 -5 4 -8 9 -4 5 3 12 1 16 -5 3 -5
-7 -13 -22 -16 -25 -7 -25 -8 -8 -15 19 -7 18 -8 -2 -8 l-23 -1 0 -530 0 -530
2500 0 2500 0 0 2500 0 2500 -346 0 -345 0 1 -67z m-2790 -1619 c0 -27 -23
-26 -70 4 -2 2 1 7 8 11 19 11 62 1 62 -15z m-308 -11 c10 -9 18 -25 18 -35 0
-11 4 -16 10 -13 18 11 86 -15 109 -42 13 -16 33 -38 44 -51 15 -16 18 -25 10
-33 -6 -6 -9 -18 -5 -27 4 -11 1 -14 -11 -9 -11 4 -14 2 -11 -7 13 -34 -16
-21 -47 20 -18 25 -49 57 -69 72 -19 14 -57 46 -83 71 -48 45 -48 45 -25 58
30 16 38 16 60 -4z m508 -484 c0 -5 -4 -9 -10 -9 -5 0 -10 7 -10 16 0 8 5 12
10 9 6 -3 10 -10 10 -16z m1405 -130 c-4 -11 -11 -19 -17 -19 -5 0 -7 7 -4 16
3 9 6 28 7 42 l0 27 10 -24 c5 -13 7 -32 4 -42z m-615 47 c0 -2 -9 -6 -20 -9
-11 -3 -18 -1 -14 4 5 9 34 13 34 5z m353 -3 c-7 -2 -19 -2 -25 0 -7 3 -2 5
12 5 14 0 19 -2 13 -5z m147 -4 c0 -5 -20 -9 -45 -9 -25 0 -45 4 -45 9 0 5 20
9 45 9 25 0 45 -4 45 -9z m-130 -57 c0 -4 -16 -6 -35 -4 -19 2 -35 6 -35 8 0
2 16 4 35 4 19 0 35 -4 35 -8z m95 -2 c-3 -5 -21 -10 -40 -10 -19 0 -37 5 -40
10 -4 6 12 10 40 10 28 0 44 -4 40 -10z m65 0 c0 -5 -11 -10 -25 -10 -14 0
-25 5 -25 10 0 6 11 10 25 10 14 0 25 -4 25 -10z m-162 -59 c-2 -20 -8 -26
-28 -26 -20 0 -26 6 -28 27 -2 19 2 27 15 30 31 7 44 -3 41 -31z m-442 -48
c-2 -83 -23 -98 -28 -20 -4 68 0 87 17 87 10 0 13 -17 11 -67z m558 41 l46 -7
-2 -58 c-1 -33 -7 -59 -13 -59 -5 0 -3 -5 5 -10 11 -7 -5 -10 -52 -10 l-68 0
-1 35 c-1 19 -2 50 -3 68 -3 52 -1 53 88 41z m276 -14 c0 -5 -4 -10 -10 -10
-5 0 -10 5 -10 10 0 6 5 10 10 10 6 0 10 -4 10 -10z m-37 -27 c-4 -11 -3 -14
6 -9 8 5 11 -1 9 -21 -1 -16 1 -34 6 -41 4 -7 3 -12 -3 -12 -5 0 -11 -12 -13
-27 -2 -14 -10 -28 -18 -30 -13 -4 -13 -3 0 6 9 7 10 11 3 11 -6 0 -15 -4 -18
-10 -9 -14 -55 -13 -55 2 0 6 3 8 6 5 6 -6 44 29 44 40 0 7 -9 2 -40 -26 -30
-26 -32 -30 -18 -44 9 -9 17 -14 19 -12 2 2 5 -7 5 -19 2 -20 -3 -18 -37 19
-22 23 -39 48 -39 54 0 7 -5 9 -11 5 -7 -4 -10 1 -7 12 2 10 37 40 78 66 83
52 92 55 83 31z m-3153 -13 c0 -5 -9 -10 -20 -10 -11 0 -20 5 -20 10 0 6 9 10
20 10 11 0 20 -4 20 -10z m2560 -39 c0 -29 -22 -31 -48 -5 l-23 24 36 0 c28 0
35 -4 35 -19z m-495 -21 c3 -5 1 -10 -4 -10 -6 0 -11 5 -11 10 0 6 2 10 4 10
3 0 8 -4 11 -10z m401 -47 c-3 -3 -13 -2 -23 2 -17 7 -17 8 2 15 19 7 34 -5
21 -17z m-115 -4 c-2 -8 -4 -20 -4 -26 0 -7 -4 -13 -9 -13 -13 0 -21 28 -14
46 7 19 33 12 27 -7z m-1976 1 c3 -5 1 -10 -4 -10 -6 0 -11 5 -11 10 0 6 2 10
4 10 3 0 8 -4 11 -10z m1625 6 c0 -3 -4 -8 -10 -11 -5 -3 -10 -1 -10 4 0 6 5
11 10 11 6 0 10 -2 10 -4z m390 -6 c0 -5 -4 -10 -10 -10 -5 0 -10 5 -10 10 0
6 5 10 10 10 6 0 10 -4 10 -10z m560 1 c0 -12 -104 -26 -119 -16 -6 3 -9 11
-6 16 8 12 125 12 125 0z m-2750 -78 c0 -26 -16 -12 -18 15 -1 21 0 23 8 12 5
-8 10 -21 10 -27z m469 6 c-5 -10 -16 -19 -24 -19 -8 0 -20 -9 -27 -20 -7 -11
-16 -20 -20 -20 -15 0 -8 21 17 55 18 23 32 31 45 28 16 -4 18 -9 9 -24z
m3901 -11 c0 -5 -4 -8 -10 -8 -5 0 -10 10 -10 23 0 18 2 19 10 7 5 -8 10 -18
10 -22z m-2521 -168 c0 -85 -5 -150 -10 -150 -5 0 -8 -5 -6 -11 1 -6 -4 -14
-10 -16 -10 -3 -13 15 -14 71 -1 42 -2 82 -3 89 -1 6 3 15 8 19 6 4 5 12 -2
20 -12 15 -11 95 2 116 4 6 13 12 21 12 12 0 14 -28 14 -150z m101 130 c0 -5
7 -7 15 -4 8 4 15 1 15 -5 0 -6 7 -11 15 -11 8 0 14 -3 13 -7 -5 -22 16 -142
24 -137 5 3 8 -13 7 -40 -2 -24 -6 -43 -11 -40 -5 3 -8 11 -7 17 3 25 -2 37
-14 37 -35 0 -66 62 -70 140 -2 28 -6 36 -25 38 -12 2 -20 8 -17 13 8 12 55
12 55 -1z m1167 -9 c3 -11 17 -21 36 -25 23 -5 28 -9 19 -15 -8 -4 -13 -12
-12 -17 4 -20 -22 -14 -27 6 -4 17 -11 21 -29 17 -13 -2 -24 -1 -24 3 0 15
-39 18 -44 3 -4 -9 -14 -13 -26 -10 -11 3 -18 1 -14 -4 3 -5 -1 -9 -8 -9 -9 0
-9 -3 2 -10 10 -6 11 -10 3 -10 -22 0 -14 -14 17 -32 27 -15 32 -16 36 -3 8
19 38 19 53 1 14 -17 -1 -31 -44 -42 -55 -15 -94 5 -95 49 0 9 -4 17 -9 17 -8
0 -24 37 -22 52 0 4 -7 5 -17 1 -14 -5 -15 -4 -4 8 9 10 17 11 30 3 19 -12 82
-8 97 7 5 5 19 9 32 9 13 0 23 5 23 10 0 18 22 11 27 -9z m-1462 -18 c18 -14
18 -15 2 -9 -10 3 -23 6 -28 6 -5 0 -9 5 -9 10 0 14 12 12 35 -7z m1047 -11
c44 -12 78 -36 138 -97 l45 -47 3 -116 c3 -106 5 -119 25 -135 12 -10 16 -16
10 -12 -9 4 -13 -3 -13 -22 0 -27 -15 -53 -31 -53 -4 0 -5 9 -2 20 4 13 0 20
-9 20 -9 0 -18 -17 -24 -47 l-10 -48 -14 28 c-16 33 -50 37 -51 5 0 -13 -3
-17 -6 -10 -2 6 -16 12 -29 12 -13 0 -24 5 -24 12 0 9 -3 9 -12 0 -7 -7 -22
-12 -34 -12 -12 0 -27 -7 -34 -15 -14 -17 -6 -46 12 -43 7 2 14 -8 15 -22 l2
-25 -8 25 -9 25 -1 -25 c-2 -24 -2 -24 -16 -6 -8 11 -15 30 -15 43 0 29 -36
32 -45 3 -4 -11 -11 -18 -16 -14 -5 3 -7 9 -4 14 3 4 -2 10 -10 14 -8 3 -15
18 -15 34 0 15 -6 34 -12 41 -10 11 -10 14 0 18 6 3 12 11 12 19 0 8 5 14 10
14 12 0 13 43 1 55 -5 6 -12 25 -16 42 -5 28 -4 32 9 27 18 -7 23 21 6 31 -5
3 -10 1 -10 -5 0 -6 -4 -9 -10 -5 -5 3 -6 15 -1 28 5 14 5 30 0 40 -6 9 -9 52
-7 94 l3 77 43 9 c23 4 42 11 42 15 0 10 66 6 112 -6z m1443 8 c-3 -5 -11 -10
-16 -10 -6 0 -7 5 -4 10 3 6 11 10 16 10 6 0 7 -4 4 -10z m-2749 -67 c7 -18
11 -33 8 -33 -7 0 -34 67 -33 82 0 8 3 8 6 -2 3 -8 12 -30 19 -47z m2694 49
c0 -11 -82 -42 -110 -42 -20 0 -22 2 -10 10 13 9 13 11 0 19 -10 7 0 11 35 13
28 2 58 4 68 5 9 1 17 -1 17 -5z m-1634 -58 c3 -24 3 -55 0 -68 -4 -18 -1 -28
11 -36 13 -8 14 -13 6 -16 -8 -4 -13 -27 -13 -62 0 -31 -5 -64 -11 -72 -8 -12
-9 -10 -4 8 4 14 2 22 -5 22 -7 0 -10 6 -7 13 5 12 -17 40 -26 31 -2 -2 -10 3
-17 11 -11 13 -10 18 6 29 10 8 16 18 11 22 -4 4 -7 2 -7 -4 0 -7 -7 -12 -16
-12 -11 0 -14 6 -9 23 5 17 4 19 -4 7 -9 -12 -11 -13 -11 -1 0 8 -3 11 -7 8
-3 -4 -12 1 -18 10 -12 16 -14 16 -30 -1 -13 -12 -21 -14 -28 -7 -14 14 -74
14 -82 1 -3 -5 -11 -10 -16 -10 -6 0 -7 5 -4 10 3 6 2 10 -4 10 -5 0 -14 -8
-20 -17 -5 -10 -13 -14 -18 -9 -4 5 -2 11 5 13 21 8 2 23 -29 23 -19 0 -29 -5
-29 -15 0 -8 -4 -15 -10 -15 -6 0 -10 28 -10 65 0 55 3 65 18 66 79 4 263 10
289 10 18 -1 34 3 37 8 4 5 15 7 26 4 14 -4 21 -17 26 -49z m1297 37 c4 -17 2
-18 -14 -8 -22 14 -25 27 -5 27 7 0 16 -9 19 -19z m412 9 c-3 -5 -11 -10 -16
-10 -6 0 -7 5 -4 10 3 6 11 10 16 10 6 0 7 -4 4 -10z m-2525 -20 c29 -29 25
-42 -7 -28 -38 16 -46 24 -39 37 10 16 24 13 46 -9z m2720 10 c0 -5 -8 -10
-17 -10 -15 0 -16 2 -3 10 19 12 20 12 20 0z m-196 -35 c-25 -19 -34 -19 -34
0 0 10 10 15 27 15 26 0 26 -1 7 -15z m-2127 -32 c-3 -10 -5 -4 -5 12 0 17 2
24 5 18 2 -7 2 -21 0 -30z m2283 33 c0 -3 -4 -8 -10 -11 -5 -3 -10 -1 -10 4 0
6 5 11 10 11 6 0 10 -2 10 -4z m-343 -12 c-3 -3 -12 -4 -19 -1 -8 3 -5 6 6 6
11 1 17 -2 13 -5z m-1500 -66 c-2 -13 -4 -3 -4 22 0 25 2 35 4 23 2 -13 2 -33
0 -45z m-1065 20 c-7 -7 -12 -8 -12 -2 0 6 3 14 7 17 3 4 9 5 12 2 2 -3 -1
-11 -7 -17z m2338 -8 c0 -5 -4 -10 -10 -10 -5 0 -10 5 -10 10 0 6 5 10 10 10
6 0 10 -4 10 -10z m-587 -67 c4 -29 1 -43 -9 -47 -7 -3 -15 -2 -18 3 -5 7 14
94 20 89 1 -2 5 -22 7 -45z m527 17 c0 -5 -5 -10 -11 -10 -5 0 -7 5 -4 10 3 6
8 10 11 10 2 0 4 -4 4 -10z m752 -31 c-12 -43 -27 -60 -45 -53 -9 3 -15 10
-12 15 3 4 13 5 22 2 13 -5 15 -1 11 21 -4 18 0 29 11 36 20 11 22 9 13 -21z
m-3062 13 c0 -15 -24 -32 -47 -32 -24 0 -32 25 -10 33 20 9 57 8 57 -1z m1586
-99 c-4 -106 -14 -101 -15 9 0 57 3 88 8 79 5 -8 8 -47 7 -88z m87 75 c-4 -7
-8 -16 -8 -20 0 -14 -15 -21 -15 -7 0 8 5 20 12 27 16 16 21 15 11 0z m-126
-40 c-3 -7 -5 -2 -5 12 0 14 2 19 5 13 2 -7 2 -19 0 -25z m155 2 c-3 -19 -10
-30 -21 -30 -12 0 -13 2 -3 9 8 4 13 11 13 15 -3 21 0 36 7 36 5 0 7 -13 4
-30z m-1242 -30 c0 -5 -4 -10 -10 -10 -5 0 -10 5 -10 10 0 6 5 10 10 10 6 0
10 -4 10 -10z m1090 -27 c0 -23 -4 -33 -9 -27 -9 8 -4 64 5 64 2 0 4 -17 4
-37z m-946 -22 c-2 -2 -10 1 -17 7 -8 7 -17 8 -22 4 -4 -4 -2 4 5 17 l12 23
12 -23 c7 -13 11 -26 10 -28z m292 24 c4 -8 10 -13 14 -10 4 3 15 -6 24 -20
15 -22 15 -24 0 -18 -13 5 -15 2 -10 -15 4 -12 2 -23 -5 -28 -8 -5 -9 -3 -4 6
5 8 4 11 -3 6 -12 -7 -6 -31 12 -55 9 -12 8 -13 -3 -6 -11 6 -13 4 -9 -7 5
-11 0 -14 -19 -10 -18 3 -21 7 -12 13 10 6 5 11 -15 18 -15 6 -31 9 -36 6 -5
-3 -11 -1 -15 5 -3 5 2 10 11 10 14 0 15 3 6 12 -7 7 -12 21 -12 33 0 16 -2
17 -10 5 -5 -8 -10 -13 -11 -10 0 3 -2 12 -4 22 -2 9 5 18 17 21 11 3 17 10
14 16 -4 5 6 12 21 14 16 2 32 5 36 6 4 0 10 -6 13 -14z m-1193 -7 c-4 -7 -6
-20 -5 -29 2 -9 -6 -19 -17 -22 -16 -4 -19 0 -19 24 1 15 5 26 10 23 4 -3 8 0
8 5 0 6 7 11 16 11 10 0 12 -4 7 -12z m167 -4 c0 -2 -11 -4 -25 -4 -14 0 -25
4 -25 9 0 4 11 6 25 3 14 -2 25 -6 25 -8z m120 6 c0 -5 -4 -10 -9 -10 -6 0
-13 5 -16 10 -3 6 1 10 9 10 9 0 16 -4 16 -10z m470 -7 c0 -10 -5 -25 -10 -33
-7 -11 -10 -7 -10 18 0 17 5 32 10 32 6 0 10 -8 10 -17z m-220 -3 c0 -5 -2
-10 -4 -10 -3 0 -8 5 -11 10 -3 6 -1 10 4 10 6 0 11 -4 11 -10z m1585 0 c3 -5
1 -10 -4 -10 -6 0 -11 5 -11 10 0 6 2 10 4 10 3 0 8 -4 11 -10z m395 0 c0 -5
-2 -10 -4 -10 -3 0 -8 5 -11 10 -3 6 -1 10 4 10 6 0 11 -4 11 -10z m-1550 -21
c0 -6 -4 -7 -10 -4 -5 3 -10 11 -10 16 0 6 5 7 10 4 6 -3 10 -11 10 -16z
m-1017 4 c-7 -2 -19 -2 -25 0 -7 3 -2 5 12 5 14 0 19 -2 13 -5z m921 -18 c-4
-8 -11 -12 -16 -9 -6 4 -5 10 3 15 19 12 19 11 13 -6z m-944 -5 c11 -7 7 -10
-18 -10 -20 0 -31 4 -27 10 8 13 26 13 45 0z m223 3 c-7 -2 -19 -2 -25 0 -7 3
-2 5 12 5 14 0 19 -2 13 -5z m142 -3 c-3 -5 -11 -10 -16 -10 -6 0 -7 5 -4 10
3 6 11 10 16 10 6 0 7 -4 4 -10z m253 -5 c6 -3 12 -12 12 -22 -1 -17 -1 -17
-14 0 -7 9 -24 17 -37 17 -13 0 -31 5 -39 11 -11 7 -4 8 25 4 22 -4 46 -8 53
-10z m366 0 c3 -8 13 -15 23 -16 16 0 16 -1 -2 -9 -28 -12 -45 -12 -45 1 0 5
5 7 10 4 14 -9 13 8 -2 23 -8 8 -8 12 -1 12 6 0 13 -7 17 -15z m95 6 c8 -5 9
-11 3 -15 -5 -3 -15 1 -22 9 -14 16 -3 20 19 6z m1221 -1 c0 -5 -7 -10 -16
-10 -8 0 -12 5 -9 10 3 6 10 10 16 10 5 0 9 -4 9 -10z m295 0 c7 0 15 -9 18
-20 6 -23 -8 -27 -17 -5 -3 8 -17 15 -31 15 -16 0 -24 4 -20 11 4 6 14 8 22 5
8 -3 20 -6 28 -6z m-2518 -47 c-3 -10 -5 -4 -5 12 0 17 2 24 5 18 2 -7 2 -21
0 -30z m450 15 c-3 -8 -6 -5 -6 6 -1 11 2 17 5 13 3 -3 4 -12 1 -19z m303 7
c0 -8 -4 -15 -10 -15 -5 0 -7 7 -4 15 4 8 8 15 10 15 2 0 4 -7 4 -15z m641
-24 c0 -9 4 -37 8 -63 l8 -48 -46 1 c-32 0 -40 3 -26 8 17 7 16 9 -9 15 -26 6
-28 10 -22 38 8 42 42 77 67 71 10 -3 19 -13 20 -22z m-1194 13 c-3 -3 -12 -4
-19 -1 -8 3 -5 6 6 6 11 1 17 -2 13 -5z m3323 -13 c0 -5 -7 -12 -16 -15 -14
-5 -15 -4 -4 9 14 17 20 19 20 6z m-3569 -48 c-8 -15 -9 -12 -6 12 5 40 7 43
12 23 2 -10 0 -25 -6 -35z m786 25 c-3 -8 -6 -5 -6 6 -1 11 2 17 5 13 3 -3 4
-12 1 -19z m503 6 c0 -8 -4 -12 -10 -9 -5 3 -10 10 -10 16 0 5 5 9 10 9 6 0
10 -7 10 -16z m-1155 -4 c3 -5 2 -10 -4 -10 -5 0 -13 5 -16 10 -3 6 -2 10 4
10 5 0 13 -4 16 -10z m2470 -17 c3 -9 2 -19 -1 -22 -4 -3 -9 -1 -11 6 -2 7
-20 15 -39 19 -47 9 -43 20 5 16 24 -2 42 -10 46 -19z m588 20 c-7 -2 -19 -2
-25 0 -7 3 -2 5 12 5 14 0 19 -2 13 -5z m-2584 -25 c0 -16 -2 -18 -6 -8 -3 8
-11 18 -17 22 -7 5 -4 8 7 8 11 0 17 -7 16 -22z m-819 2 c0 -5 -4 -10 -9 -10
-6 0 -13 5 -16 10 -3 6 1 10 9 10 9 0 16 -4 16 -10z m267 -27 c-3 -10 -5 -4
-5 12 0 17 2 24 5 18 2 -7 2 -21 0 -30z m1136 30 c-7 -2 -19 -2 -25 0 -7 3 -2
5 12 5 14 0 19 -2 13 -5z m701 -9 c3 -8 2 -12 -4 -9 -6 3 -10 10 -10 16 0 14
7 11 14 -7z m-671 -21 c-7 -2 -19 -2 -25 0 -7 3 -2 5 12 5 14 0 19 -2 13 -5z
m2237 -3 c0 -5 -7 -10 -15 -10 -8 0 -15 5 -15 10 0 6 7 10 15 10 8 0 15 -4 15
-10z m-4101 -16 c8 -7 -63 -2 -94 7 -20 5 -9 6 30 2 33 -3 62 -7 64 -9z m1873
-1 c-6 -2 -10 -8 -8 -12 3 -4 -1 -8 -8 -8 -7 0 -13 6 -13 14 0 7 10 13 21 12
12 0 15 -3 8 -6z m-1104 -20 c-10 -2 -26 -2 -35 0 -10 3 -2 5 17 5 19 0 27 -2
18 -5z m-131 -25 c-3 -8 -6 -5 -6 6 -1 11 2 17 5 13 3 -3 4 -12 1 -19z m70
-10 c-3 -7 -5 -2 -5 12 0 14 2 19 5 13 2 -7 2 -19 0 -25z m-717 -4 c0 -14 -4
-23 -9 -20 -7 5 -8 23 -2 44 4 12 11 -3 11 -24z m2615 17 c-6 -5 -26 -11 -45
-14 l-35 -4 38 -1 c44 -2 51 -22 7 -22 -16 0 -30 -4 -30 -8 0 -4 16 -6 35 -4
21 3 35 0 35 -7 0 -7 -20 -11 -51 -11 l-51 0 3 33 c4 46 5 47 57 47 28 0 42
-4 37 -9z m1695 -11 c-8 -5 -17 -7 -19 -4 -3 3 1 9 9 14 8 5 17 7 19 4 3 -3
-1 -9 -9 -14z m-2223 -6 c-3 -3 -12 -4 -19 -1 -8 3 -5 6 6 6 11 1 17 -2 13 -5z
m1932 -36 c10 -17 9 -22 -6 -33 -13 -10 -19 -10 -22 -2 -2 6 1 13 8 15 23 8
10 22 -14 16 -20 -5 -25 -2 -25 14 0 25 41 19 59 -10z m246 22 c3 -5 1 -10 -4
-10 -6 0 -11 5 -11 10 0 6 2 10 4 10 3 0 8 -4 11 -10z m-1045 -10 c0 -5 -2
-10 -4 -10 -3 0 -8 5 -11 10 -3 6 -1 10 4 10 6 0 11 -4 11 -10z m68 -15 c2
-13 0 -16 -5 -8 -5 7 -20 17 -33 22 -25 11 -25 11 5 8 21 -1 31 -8 33 -22z
m1013 -2 c-11 -5 -11 -7 0 -14 10 -6 3 -9 -21 -9 l-35 0 25 14 c14 8 30 14 35
14 6 0 4 -2 -4 -5z m-455 -28 c-11 -8 -24 -15 -30 -15 -5 0 -1 7 10 15 10 8
24 14 29 14 6 0 1 -6 -9 -14z m377 -2 c-7 -2 -19 -2 -25 0 -7 3 -2 5 12 5 14
0 19 -2 13 -5z m-915 -38 c3 -16 1 -18 -9 -7 -7 6 -22 12 -33 12 -12 0 -28 5
-36 10 -11 8 -3 10 30 8 36 -2 46 -7 48 -23z m-94 -10 c3 -8 1 -15 -4 -15 -6
0 -10 7 -10 15 0 8 2 15 4 15 2 0 6 -7 10 -15z m726 -9 c0 -9 -60 -70 -64 -65
-7 6 43 69 55 69 5 0 9 -2 9 -4z m-4484 -41 c2 -19 -3 -25 -20 -25 -15 0 -22
6 -22 20 0 13 5 19 13 16 7 -3 13 -1 13 4 0 22 15 8 16 -15z m3924 21 c0 -2
-6 -9 -13 -15 -10 -8 -14 -7 -14 4 0 8 6 15 14 15 7 0 13 -2 13 -4z m-93 -12
c-3 -3 -12 -4 -19 -1 -8 3 -5 6 6 6 11 1 17 -2 13 -5z m-2660 -46 c-3 -7 -5
-2 -5 12 0 14 2 19 5 13 2 -7 2 -19 0 -25z m3418 22 c3 -5 -1 -10 -10 -10 -9
0 -13 5 -10 10 3 6 8 10 10 10 2 0 7 -4 10 -10z m-3288 -32 c-3 -8 -6 -5 -6 6
-1 11 2 17 5 13 3 -3 4 -12 1 -19z m1214 -47 c-9 -6 -7 -10 8 -14 15 -3 21 0
21 10 0 13 2 13 16 2 13 -11 13 -14 3 -17 -8 -3 -23 -12 -33 -21 -11 -9 -16
-10 -12 -3 6 10 1 11 -21 7 -22 -5 -25 -4 -13 4 13 10 13 12 0 21 -8 5 -26 7
-40 3 -17 -4 -22 -2 -15 5 9 10 84 21 95 14 2 -2 -1 -7 -9 -11z m-1354 -23
c-3 -8 -6 -5 -6 6 -1 11 2 17 5 13 3 -3 4 -12 1 -19z m-952 -25 c18 -14 18
-15 2 -9 -10 3 -25 6 -33 6 -8 0 -14 5 -14 10 0 15 22 12 45 -7z m2470 -5
c-16 -6 -33 -16 -37 -22 -4 -6 -11 -7 -15 -2 -12 12 27 36 56 35 25 -1 25 -1
-4 -11z m-338 -20 c-3 -8 -6 -5 -6 6 -1 11 2 17 5 13 3 -3 4 -12 1 -19z m406
7 c1 -5 -6 -11 -15 -13 -11 -2 -18 3 -18 13 0 17 30 18 33 0z m37 0 c-7 -9
-15 -13 -19 -10 -3 3 1 10 9 15 21 14 24 12 10 -5z m-415 -35 c11 -5 14 -9 8
-9 -7 -1 -13 -7 -13 -14 0 -7 -10 -14 -22 -14 -16 -2 -19 0 -9 6 9 6 10 11 2
15 -15 10 -14 26 2 25 6 0 21 -4 32 -9z m84 -14 c-2 -2 -17 -2 -34 2 -30 6
-30 6 -5 12 23 6 50 -4 39 -14z m83 -16 l-33 -29 -9 25 c-14 36 -14 37 25 30
24 -5 35 -3 35 5 0 7 3 9 7 5 4 -3 -8 -20 -25 -36z m66 28 c-2 -6 8 -17 20
-24 27 -13 16 -26 -16 -18 -25 7 -37 34 -20 46 17 10 18 10 16 -4z m119 -20
c-3 -7 -5 -2 -5 12 0 14 2 19 5 13 2 -7 2 -19 0 -25z m-27 18 c0 -3 -4 -8 -10
-11 -5 -3 -10 -1 -10 4 0 6 5 11 10 11 6 0 10 -2 10 -4z m-1543 -38 c-3 -7 -5
-2 -5 12 0 14 2 19 5 13 2 -7 2 -19 0 -25z m1458 -18 c-4 -6 -10 -8 -15 -5 -5
3 -11 1 -15 -5 -8 -13 -25 -13 -25 -1 0 5 8 12 18 14 31 8 43 7 37 -3z m55
-10 c-19 -11 -42 -19 -50 -19 -8 0 1 8 20 19 19 11 42 19 50 19 8 0 -1 -8 -20
-19z m-2578 -25 c0 -5 -5 -11 -11 -13 -6 -2 -11 4 -11 13 0 9 5 15 11 13 6 -2
11 -8 11 -13z m2242 -1 c9 -23 8 -24 -19 -24 -23 0 -24 2 -13 20 15 24 24 25
32 4z m380 1 c-6 -16 -24 -21 -24 -7 0 11 11 22 21 22 5 0 6 -7 3 -15z m-134
1 c0 -3 -4 -8 -10 -11 -5 -3 -10 -1 -10 4 0 6 5 11 10 11 6 0 10 -2 10 -4z
m-2435 -16 c3 -5 1 -10 -4 -10 -6 0 -11 -6 -11 -14 0 -15 -46 -10 -56 6 -4 6
1 8 14 4 13 -4 22 -1 26 9 6 17 22 20 31 5z m57 -5 c0 -5 -5 -11 -11 -13 -6
-2 -11 4 -11 13 0 9 5 15 11 13 6 -2 11 -8 11 -13z m66 3 c18 -18 14 -30 -8
-23 -13 4 -20 2 -20 -7 0 -7 -11 -18 -23 -24 -18 -8 -24 -8 -24 3 0 7 6 13 14
13 7 0 13 9 13 19 0 17 11 27 31 30 3 1 10 -4 17 -11z m2172 2 c12 -8 9 -10
-13 -10 -16 0 -26 4 -22 10 8 12 16 12 35 0z m-1113 -22 c-3 -8 -6 -5 -6 6 -1
11 2 17 5 13 3 -3 4 -12 1 -19z m2810 16 c-3 -3 -12 -4 -19 -1 -8 3 -5 6 6 6
11 1 17 -2 13 -5z m270 0 c-3 -3 -12 -4 -19 -1 -8 3 -5 6 6 6 11 1 17 -2 13
-5z m-4370 -20 c-3 -3 -12 -4 -19 -1 -8 3 -5 6 6 6 11 1 17 -2 13 -5z m67 -25
c-3 -5 5 -9 18 -9 21 -1 21 -2 5 -11 -13 -7 -22 -7 -31 0 -7 6 -16 9 -19 6 -4
-3 -5 -2 -2 2 3 3 -3 11 -12 18 -13 10 -11 11 15 7 18 -2 29 -8 26 -13z m65 0
c-16 -10 -23 -4 -14 10 3 6 11 8 17 5 6 -4 5 -9 -3 -15z m298 15 c-3 -3 -12
-4 -19 -1 -8 3 -5 6 6 6 11 1 17 -2 13 -5z m3498 -4 c-3 -5 -13 -10 -21 -10
-8 0 -14 5 -14 10 0 6 9 10 21 10 11 0 17 -4 14 -10z m-3945 -30 c0 -5 -8 -10
-17 -10 -15 0 -16 2 -3 10 19 12 20 12 20 0z m2280 0 c0 -5 -2 -10 -4 -10 -3
0 -8 5 -11 10 -3 6 -1 10 4 10 6 0 11 -4 11 -10z m-2321 -4 c-2 -2 -21 -6 -42
-10 -27 -5 -37 -4 -32 3 3 6 22 11 42 11 20 0 34 -2 32 -4z m314 -3 c-7 -2
-19 -2 -25 0 -7 3 -2 5 12 5 14 0 19 -2 13 -5z m2061 -49 c3 -8 2 -12 -4 -9
-6 3 -10 10 -10 16 0 14 7 11 14 -7z m-1197 -36 c-3 -7 -5 -2 -5 12 0 14 2 19
5 13 2 -7 2 -19 0 -25z m-1058 4 c3 -5 13 -12 21 -16 8 -3 5 -4 -7 -2 -13 2
-23 0 -23 -5 0 -5 -5 -9 -11 -9 -5 0 -8 4 -5 9 3 4 -16 16 -42 25 l-47 17 54
-5 c30 -3 57 -9 60 -14z m466 8 c3 -5 -1 -10 -9 -10 -8 0 -18 5 -21 10 -3 6 1
10 9 10 8 0 18 -4 21 -10z m-213 -37 c-12 -2 -20 -8 -17 -13 6 -10 -47 -18
-95 -15 -53 4 -57 6 -30 15 37 12 82 12 75 0 -3 -5 -1 -10 4 -10 6 0 11 7 11
15 0 11 10 15 38 14 23 -1 29 -3 14 -6z m81 0 c-7 -2 -21 -2 -30 0 -10 3 -4 5
12 5 17 0 24 -2 18 -5z m72 -3 c3 -6 -5 -10 -19 -10 -14 0 -28 5 -31 10 -3 6
5 10 19 10 14 0 28 -4 31 -10z m1672 4 c-3 -3 -12 -4 -19 -1 -8 3 -5 6 6 6 11
1 17 -2 13 -5z m-1604 -23 c4 -1 7 -5 7 -9 0 -5 -19 -10 -42 -11 -24 -1 -61
-3 -83 -4 -28 -1 -40 2 -43 13 -2 12 11 15 75 13 43 -1 81 -2 86 -2z m2172
-46 c-16 -13 -32 -22 -35 -19 -7 7 39 44 54 44 6 -1 -2 -12 -19 -25z m-2747 0
c-2 -1 -20 -5 -41 -8 -31 -5 -36 -3 -28 7 6 7 23 11 41 8 17 -2 30 -5 28 -7z
m46 6 c4 -5 -3 -7 -14 -4 -23 6 -26 13 -6 13 8 0 17 -4 20 -9z m749 -3 c-2 -5
-23 -8 -46 -7 -32 0 -37 2 -22 9 24 10 75 8 68 -2z m-328 -8 c8 -13 -15 -13
-35 0 -12 8 -11 10 7 10 12 0 25 -4 28 -10z m303 -16 c42 -12 22 -21 -35 -16
-84 7 -112 21 -43 21 30 1 65 -2 78 -5z m-317 -25 c23 -11 39 -23 36 -26 -6
-5 -97 33 -97 41 0 11 21 6 61 -15z m-479 -24 c11 -14 30 -25 44 -25 13 0 24
-4 24 -10 0 -5 -9 -10 -21 -10 -15 0 -19 -5 -15 -15 3 -8 3 -15 0 -15 -2 0 -9
12 -14 26 -7 18 -15 24 -26 20 -19 -7 -64 21 -64 40 0 24 50 16 72 -11z m878
5 c-20 -13 -43 -13 -35 0 3 6 16 10 28 10 18 0 19 -2 7 -10z m210 -1 c0 -5 -4
-8 -9 -5 -5 3 -14 -1 -21 -9 -7 -8 -17 -15 -23 -15 -5 0 0 9 13 20 26 22 40
26 40 9z m-753 -65 c-3 -3 -12 -4 -19 -1 -8 3 -5 6 6 6 11 1 17 -2 13 -5z
m-90 -10 c-3 -3 -12 -4 -19 -1 -8 3 -5 6 6 6 11 1 17 -2 13 -5z m43 -4 c0 -5
-4 -10 -10 -10 -5 0 -10 5 -10 10 0 6 5 10 10 10 6 0 10 -4 10 -10z m30 -36
c0 -8 -4 -12 -10 -9 -5 3 -10 10 -10 16 0 5 5 9 10 9 6 0 10 -7 10 -16z m2823
9 c-7 -2 -19 -2 -25 0 -7 3 -2 5 12 5 14 0 19 -2 13 -5z m-108 -23 c3 -6 -1
-7 -9 -4 -18 7 -21 14 -7 14 6 0 13 -4 16 -10z m-2345 -10 c0 -5 -2 -10 -4
-10 -3 0 -8 5 -11 10 -3 6 -1 10 4 10 6 0 11 -4 11 -10z m1908 3 c-10 -2 -26
-2 -35 0 -10 3 -2 5 17 5 19 0 27 -2 18 -5z m-181 -9 c-3 -3 -12 -4 -19 -1 -8
3 -5 6 6 6 11 1 17 -2 13 -5z m-1992 -14 c3 -6 -1 -7 -9 -4 -18 7 -21 14 -7
14 6 0 13 -4 16 -10z m-458 -6 c-3 -3 -12 -4 -19 -1 -8 3 -5 6 6 6 11 1 17 -2
13 -5z m373 -15 c0 -4 -7 -6 -15 -3 -8 4 -15 10 -15 15 0 4 7 6 15 3 8 -4 15
-10 15 -15z m4507 5 c-3 -3 -12 -4 -19 -1 -8 3 -5 6 6 6 11 1 17 -2 13 -5z
m-4747 -18 c0 -3 -4 -8 -10 -11 -5 -3 -10 -1 -10 4 0 6 5 11 10 11 6 0 10 -2
10 -4z m-30 -22 c0 -2 -9 -4 -20 -4 -11 0 -20 4 -20 9 0 5 9 7 20 4 11 -3 20
-7 20 -9z m302 -14 c12 -11 17 -20 11 -20 -5 0 -18 9 -28 20 -10 11 -15 20
-11 20 4 0 16 -9 28 -20z m4514 -25 c-9 -13 -18 -35 -20 -47 -1 -13 -7 -23
-12 -22 -5 1 -14 -6 -21 -15 -11 -14 -12 -14 -13 5 0 12 15 40 33 62 35 45 59
57 33 17z m-4885 -2 c13 -16 12 -17 -3 -4 -10 7 -18 15 -18 17 0 8 8 3 21 -13z
m369 -9 c0 -2 -9 0 -20 6 -11 6 -20 13 -20 16 0 2 9 0 20 -6 11 -6 20 -13 20
-16z m177 20 c-3 -3 -12 -4 -19 -1 -8 3 -5 6 6 6 11 1 17 -2 13 -5z m-347 -58
c0 -2 -7 -6 -15 -10 -8 -3 -15 -1 -15 4 0 6 7 10 15 10 8 0 15 -2 15 -4z m391
-23 c13 -16 12 -17 -3 -4 -10 7 -18 15 -18 17 0 8 8 3 21 -13z m-416 -22 c-3
-6 -11 -11 -16 -11 -5 0 -4 6 3 14 14 16 24 13 13 -3z m4483 -38 c-12 -15 -48
-18 -48 -4 0 11 19 19 42 18 13 -1 14 -4 6 -14z m-3245 -73 c4 -17 0 -20 -25
-20 l-30 0 23 20 c13 10 25 19 25 20 1 0 4 -9 7 -20z m3247 -5 c-40 -29 -44
-30 -36 -9 5 13 4 14 -7 6 -8 -7 -17 -9 -20 -5 -4 3 -13 0 -22 -7 -12 -10 -15
-10 -15 4 0 9 8 16 19 16 11 0 23 5 26 10 3 6 25 10 48 10 l41 0 -34 -25z
m123 15 c7 0 -1 -7 -17 -15 -15 -8 -35 -15 -44 -15 -13 0 -12 3 3 20 10 12 25
18 33 15 7 -3 19 -5 25 -5z m-4506 -336 c-3 -3 -12 -4 -19 -1 -8 3 -5 6 6 6
11 1 17 -2 13 -5z m-197 -24 c0 -5 -5 -10 -11 -10 -5 0 -7 5 -4 10 3 6 8 10
11 10 2 0 4 -4 4 -10z m-47 -7 c-7 -2 -19 -2 -25 0 -7 3 -2 5 12 5 14 0 19 -2
13 -5z m341 -15 c-6 -9 -64 -6 -64 4 0 3 15 6 34 5 19 0 33 -4 30 -9z m379
-24 c1 0 13 -7 27 -17 l25 -18 -40 5 c-22 2 -47 7 -56 10 -8 4 -31 0 -51 -8
-28 -12 -37 -13 -41 -3 -9 29 31 46 90 37 24 -4 44 -7 46 -6z m104 0 c-3 -3
-12 -4 -19 -1 -8 3 -5 6 6 6 11 1 17 -2 13 -5z m33 -9 c-7 -8 -17 -15 -22 -15
-6 0 -5 7 2 15 7 8 17 15 22 15 6 0 5 -7 -2 -15z m-304 -12 c-10 -10 -80 -33
-85 -27 -10 9 35 33 63 34 16 0 26 -3 22 -7z"/>
<path d="M2736 1805 c-10 -28 -7 -45 9 -45 16 0 20 27 6 48 -7 11 -10 10 -15
-3z"/>
<path d="M4045 4960 c-3 -5 -1 -10 4 -10 6 0 11 5 11 10 0 6 -2 10 -4 10 -3 0
-8 -4 -11 -10z"/>
<path d="M2240 3831 c-76 -24 -114 -58 -153 -137 -39 -77 -42 -111 -17 -180
12 -32 22 -65 23 -72 1 -22 65 -71 109 -83 23 -6 75 -9 115 -7 62 3 74 1 79
-14 3 -9 19 -29 37 -44 28 -23 37 -26 83 -21 48 5 52 4 49 -14 -2 -11 4 -23
16 -29 15 -9 19 -21 18 -58 -2 -54 -9 -89 -26 -117 -11 -19 -12 -19 -31 -2
-19 18 -20 16 -28 -70 -10 -100 -9 -150 5 -167 6 -7 58 -12 135 -14 117 -3
126 -2 126 15 0 10 -6 28 -14 39 -10 14 -13 45 -11 109 1 50 -2 95 -7 102 -8
9 -1 133 7 133 1 0 19 -7 39 -15 28 -12 46 -13 72 -6 30 8 42 5 100 -25 48
-25 78 -34 112 -33 56 0 118 20 115 37 -2 6 3 9 11 6 10 -4 47 35 52 56 0 3 9
23 19 45 11 25 18 67 18 115 2 116 -33 169 -159 236 -294 156 -294 156 -311
143 -9 -8 -29 -41 -45 -74 -23 -50 -28 -73 -28 -139 0 -43 4 -95 10 -115 5
-20 12 -49 15 -65 4 -20 9 -26 14 -17 6 10 10 9 15 -4 9 -24 8 -27 -6 -18 -15
9 16 -43 45 -74 11 -12 24 -20 28 -17 5 3 32 -13 60 -36 28 -22 56 -40 62 -40
5 0 8 -3 5 -6 -8 -7 -45 12 -87 47 -28 23 -38 26 -54 17 -50 -26 -117 52 -104
120 3 15 -1 58 -9 96 -9 44 -12 91 -8 127 5 47 3 58 -11 66 -12 7 -15 20 -12
51 2 23 1 42 -3 42 -3 0 -5 13 -2 29 8 54 -20 67 -149 75 -248 14 -295 15
-319 7z m335 -36 c46 -7 52 -11 57 -45 2 -19 9 -25 27 -24 22 1 23 -1 17 -49
-3 -28 -9 -53 -14 -56 -5 -3 -21 -30 -37 -58 -15 -29 -33 -53 -38 -53 -5 0 -4
6 2 14 6 7 8 22 4 31 -4 12 -3 16 4 12 15 -9 23 53 13 98 -22 98 -158 162
-248 116 -76 -39 -112 -107 -99 -188 8 -50 52 -108 95 -129 60 -28 160 -18
199 21 15 16 38 11 27 -6 -3 -5 -10 -7 -15 -4 -5 4 -9 1 -9 -4 0 -6 -8 -11
-17 -11 -14 0 -15 -2 -5 -9 9 -6 -3 -16 -41 -35 -73 -35 -85 -32 -17 5 30 17
46 27 35 23 -11 -3 -34 -10 -51 -14 -18 -4 -42 -15 -55 -24 -22 -15 -22 -16
-4 -16 18 -1 18 -2 3 -10 -29 -18 -161 -24 -204 -10 -40 13 -108 59 -100 67 3
3 17 -6 32 -20 43 -40 156 -60 209 -37 14 6 -6 9 -59 9 -44 1 -77 4 -73 7 8 8
-25 44 -41 44 -7 0 -24 12 -38 26 -20 20 -25 33 -22 60 2 19 1 34 -3 34 -32 0
6 114 42 123 14 4 20 13 19 29 -3 37 -1 39 21 28 17 -10 21 -8 26 9 6 23 48
41 113 47 24 3 47 8 50 11 5 5 123 -2 195 -12z m268 -72 c-7 -2 -19 -2 -25 0
-7 3 -2 5 12 5 14 0 19 -2 13 -5z m49 -13 c11 0 32 -8 46 -19 15 -10 39 -21
53 -24 14 -4 42 -18 63 -32 20 -14 40 -25 44 -25 4 0 23 -14 42 -30 19 -16 38
-30 42 -30 3 0 25 -18 47 -40 34 -32 40 -44 35 -65 -3 -14 -2 -31 4 -38 15
-18 -2 -152 -22 -172 -9 -9 -21 -26 -27 -37 -6 -11 -13 -17 -16 -14 -3 3 -18
-1 -34 -9 -32 -17 -85 -20 -94 -6 -3 5 -20 7 -38 4 -26 -4 -40 1 -65 22 -18
15 -32 23 -32 19 0 -4 -9 1 -20 11 -11 10 -20 24 -20 32 0 7 -7 13 -15 13 -8
0 -12 6 -9 14 3 9 -7 21 -25 32 -27 16 -47 42 -38 50 1 2 19 -13 39 -32 32
-30 44 -34 92 -35 91 -2 134 23 177 105 41 77 9 169 -80 228 -37 25 -120 24
-166 -2 -20 -11 -41 -17 -47 -14 -6 4 -8 2 -4 -4 7 -11 -33 -86 -41 -78 -8 8
8 106 18 106 5 0 8 3 8 8 -3 20 2 23 18 11 13 -11 17 -11 20 -1 3 6 8 10 13 7
4 -3 10 4 13 15 3 11 1 23 -4 26 -5 3 -9 11 -8 17 0 9 2 9 6 0 2 -7 14 -13 25
-13z m-335 -52 c3 -45 -6 -73 -19 -60 -6 6 -17 8 -25 5 -12 -5 -14 -1 -9 14 3
10 0 28 -9 39 -20 26 -19 33 8 43 32 12 51 -2 54 -41z m-100 -104 c-3 -3 -12
-4 -19 -1 -8 3 -5 6 6 6 11 1 17 -2 13 -5z m609 -29 c3 -14 10 -25 15 -25 5 0
9 -14 9 -32 0 -17 -3 -28 -7 -25 -3 4 -12 2 -20 -4 -10 -9 -13 -8 -13 5 0 9
-6 15 -12 14 -7 -2 -14 8 -16 22 -2 14 -10 32 -19 41 -16 19 -6 27 34 28 16 1
24 -6 29 -24z m-466 -105 c-7 -4 -12 -19 -12 -33 0 -49 -58 -87 -113 -73 -41
10 -58 66 -20 66 18 0 131 66 142 83 5 8 9 4 11 -12 2 -13 -2 -27 -8 -31z m20
-100 c0 -5 -5 -10 -11 -10 -5 0 -7 5 -4 10 3 6 8 10 11 10 2 0 4 -4 4 -10z
m250 -75 c0 -5 -13 6 -30 25 -16 19 -29 39 -30 45 0 5 13 -6 30 -25 16 -19 29
-39 30 -45z m-320 -255 c0 -5 -2 -10 -4 -10 -3 0 -8 5 -11 10 -3 6 -1 10 4 10
6 0 11 -4 11 -10z m150 6 c0 -2 -13 -6 -30 -8 -16 -3 -30 -1 -30 4 0 4 14 8
30 8 17 0 30 -2 30 -4z"/>
<path d="M2192 3458 c6 -18 28 -21 28 -4 0 9 -7 16 -16 16 -9 0 -14 -5 -12
-12z"/>
<path d="M3220 3466 c0 -9 7 -16 16 -16 9 0 14 5 12 12 -6 18 -28 21 -28 4z"/>
<path d="M3050 3215 c0 -8 7 -15 15 -15 8 0 15 7 15 15 0 8 -7 15 -15 15 -8 0
-15 -7 -15 -15z"/>
<path d="M2520 3641 c0 -6 5 -13 10 -16 6 -3 10 1 10 9 0 9 -4 16 -10 16 -5 0
-10 -4 -10 -9z"/>
<path d="M3040 3494 c0 -8 5 -12 10 -9 6 4 8 11 5 16 -9 14 -15 11 -15 -7z"/>
<path d="M1198 3715 c2 -14 8 -25 13 -25 5 0 6 -8 3 -17 -5 -16 -4 -16 6 -3 9
11 13 12 17 3 5 -15 23 -17 23 -4 0 12 -49 71 -60 71 -4 0 -5 -11 -2 -25z"/>
<path d="M1130 3659 c1 -22 36 -63 49 -55 13 8 15 27 2 24 -5 -2 -18 8 -30 21
-13 15 -21 19 -21 10z"/>
<path d="M1376 3604 c-28 -25 -30 -48 -2 -25 13 11 15 8 13 -16 -2 -24 1 -28
23 -25 24 2 50 26 50 45 0 5 -9 11 -20 14 -11 3 -20 12 -20 19 0 20 -11 17
-44 -12z"/>
<path d="M1320 3479 c-30 -28 -47 -45 -37 -38 15 10 20 10 27 -1 5 -8 6 -19 3
-25 -4 -5 3 -2 14 8 21 18 27 47 9 47 -7 0 -7 3 -1 8 13 9 49 52 44 52 -2 0
-29 -23 -59 -51z m15 -28 c3 -5 1 -12 -4 -15 -5 -3 -11 1 -15 9 -6 16 9 21 19
6z"/>
<path d="M1373 3494 c-7 -7 -13 -19 -13 -25 0 -8 6 -5 13 5 7 9 19 16 26 14 7
-2 15 2 17 7 6 16 -29 15 -43 -1z"/>
<path d="M1472 3481 c-11 -6 -8 -14 14 -34 15 -15 29 -25 31 -24 6 6 -14 61
-23 64 -5 1 -15 -1 -22 -6z"/>
<path d="M50 2940 c0 -5 5 -10 11 -10 5 0 7 5 4 10 -3 6 -8 10 -11 10 -2 0 -4
-4 -4 -10z"/>
<path d="M7 2933 c7 -2 19 -2 26 0 6 3 1 5 -13 5 -14 0 -19 -2 -13 -5z"/>
<path d="M200 2876 c0 -16 35 -35 63 -36 15 0 27 5 27 10 0 6 -15 10 -33 10
-18 0 -38 5 -45 12 -7 7 -12 8 -12 4z"/>
<path d="M184 2835 c-6 -15 2 -35 15 -35 5 0 9 11 9 25 0 27 -15 34 -24 10z"/>
<path d="M284 2824 c-18 -14 -18 -15 4 -4 12 6 28 8 34 4 7 -4 8 -3 4 4 -10
16 -18 15 -42 -4z"/>
<path d="M2467 2823 c-13 -13 -7 -21 13 -16 11 3 17 9 14 14 -6 11 -18 12 -27
2z"/>
<path d="M221 2804 c-12 -14 -12 -17 0 -25 15 -11 -29 -2 -69 12 -29 11 -32
11 -32 1 0 -4 21 -14 48 -21 26 -8 52 -18 58 -22 7 -6 11 4 12 31 2 45 2 45
-17 24z"/>
<path d="M2268 2813 c6 -2 18 -2 25 0 6 3 1 5 -13 5 -14 0 -19 -2 -12 -5z"/>
<path d="M3283 2803 c9 -2 25 -2 35 0 9 3 1 5 -18 5 -19 0 -27 -2 -17 -5z"/>
<path d="M1911 2668 c2 -123 7 -113 11 25 2 48 0 87 -4 87 -5 0 -7 -51 -7
-112z"/>
<path d="M285 2710 c-23 -6 -25 -8 -9 -9 20 -1 39 -25 36 -43 -2 -10 -7 -9 62
-14 64 -5 76 2 69 41 -7 33 -80 45 -158 25z"/>
<path d="M250 2686 c0 -2 7 -7 16 -10 8 -3 12 -2 9 4 -6 10 -25 14 -25 6z"/>
<path d="M1 2653 c0 -25 1 -26 9 -8 12 27 12 35 0 35 -5 0 -10 -12 -9 -27z"/>
<path d="M258 2643 c7 -3 16 -2 19 1 4 3 -2 6 -13 5 -11 0 -14 -3 -6 -6z"/>
<path d="M240 2618 c0 -4 9 -8 20 -8 11 0 20 4 20 9 0 6 -9 9 -20 8 -11 -1
-20 -5 -20 -9z"/>
<path d="M292 2615 c7 -7 97 -9 105 -2 3 4 -20 7 -52 7 -32 0 -56 -2 -53 -5z"/>
<path d="M626 2613 c5 -5 12 -12 15 -16 3 -5 9 -2 12 7 5 12 0 16 -15 16 -12
0 -17 -3 -12 -7z"/>
<path d="M800 2600 c-13 -8 -13 -10 2 -10 9 0 20 5 23 10 8 13 -5 13 -25 0z"/>
<path d="M175 2590 c3 -5 10 -10 16 -10 5 0 9 5 9 10 0 6 -7 10 -16 10 -8 0
-12 -4 -9 -10z"/>
<path d="M250 2572 c0 -21 19 -42 37 -42 7 0 13 7 13 15 0 8 -7 15 -16 15 -8
0 -13 4 -10 9 3 5 -1 11 -9 15 -10 3 -15 -1 -15 -12z"/>
<path d="M1960 2430 c0 -5 4 -10 9 -10 6 0 13 5 16 10 3 6 -1 10 -9 10 -9 0
-16 -4 -16 -10z"/>
<path d="M1215 2420 c-14 -6 -8 -7 20 -4 36 5 41 4 41 -15 0 -14 -7 -21 -21
-22 -18 0 -18 -1 3 -10 20 -7 23 -15 20 -46 -3 -35 -1 -38 21 -35 13 1 29 -2
35 -7 6 -5 20 -5 31 0 20 8 19 8 -2 14 -26 8 -39 35 -17 35 9 0 29 -10 46 -21
l30 -21 29 33 c45 52 65 94 26 55 -9 -9 -19 -11 -28 -5 -11 7 -11 9 4 9 21 0
23 26 1 34 -12 5 -15 2 -10 -11 7 -17 6 -17 -10 -1 -16 16 -18 15 -35 -5 l-17
-22 -11 28 c-8 20 -17 27 -36 27 -19 0 -25 -5 -23 -16 2 -10 -3 -19 -9 -21 -8
-3 -13 4 -13 16 0 16 -6 21 -27 20 -16 0 -37 -4 -48 -9z"/>
<path d="M3640 2380 c-11 -7 -4 -10 25 -10 29 0 36 3 25 10 -8 5 -19 10 -25
10 -5 0 -17 -5 -25 -10z"/>
<path d="M1111 2354 c0 -11 3 -14 6 -6 3 7 2 16 -1 19 -3 4 -6 -2 -5 -13z"/>
<path d="M1140 2350 c0 -5 4 -10 9 -10 6 0 13 5 16 10 3 6 -1 10 -9 10 -9 0
-16 -4 -16 -10z"/>
<path d="M4280 2349 c0 -5 5 -7 10 -4 6 3 10 8 10 11 0 2 -4 4 -10 4 -5 0 -10
-5 -10 -11z"/>
<path d="M1507 2333 c-4 -3 -7 -11 -7 -17 0 -6 5 -5 12 2 6 6 9 14 7 17 -3 3
-9 2 -12 -2z"/>
<path d="M1025 2320 c3 -5 8 -10 11 -10 2 0 4 5 4 10 0 6 -5 10 -11 10 -5 0
-7 -4 -4 -10z"/>
<path d="M3886 2295 c7 -17 20 -20 28 -6 3 5 -1 12 -10 15 -22 9 -24 8 -18 -9z"/>
<path d="M1231 2274 c-33 -17 -45 -40 -25 -48 18 -7 57 11 49 24 -3 4 1 10 7
13 9 3 10 8 3 14 -6 6 -19 5 -34 -3z"/>
<path d="M1456 2265 c-3 -8 -1 -15 4 -15 13 0 22 18 11 24 -5 3 -11 -1 -15 -9z"/>
<path d="M1490 2249 c0 -11 5 -17 10 -14 6 3 10 13 10 21 0 8 -4 14 -10 14 -5
0 -10 -9 -10 -21z"/>
<path d="M3842 2240 c0 -14 2 -19 5 -12 2 6 2 18 0 25 -3 6 -5 1 -5 -13z"/>
<path d="M1330 2231 c0 -6 4 -13 10 -16 6 -3 7 1 4 9 -7 18 -14 21 -14 7z"/>
<path d="M1394 2224 c4 -12 1 -14 -14 -9 -15 5 -18 3 -14 -10 4 -10 12 -14 23
-9 9 4 26 7 38 7 13 -1 20 3 17 8 -3 5 -12 9 -20 9 -8 0 -14 5 -14 10 0 6 -5
10 -11 10 -6 0 -8 -7 -5 -16z"/>
<path d="M3776 2205 c4 -8 8 -15 10 -15 2 0 4 7 4 15 0 8 -4 15 -10 15 -5 0
-7 -7 -4 -15z"/>
</g>
</svg>
